Coordinates
version=1
nRows=17
nColumns=40
inDegrees=yes

Units are S.I. units (second, meters, Newtons, ...)
Angles are in degrees.

endheader
time	pelvis_tilt	pelvis_list	pelvis_rotation	pelvis_tx	pelvis_ty	pelvis_tz	hip_flexion_r	hip_adduction_r	hip_rotation_r	knee_angle_r	knee_angle_r_beta	ankle_angle_r	subtalar_angle_r	mtp_angle_r	hip_flexion_l	hip_adduction_l	hip_rotation_l	knee_angle_l	knee_angle_l_beta	ankle_angle_l	subtalar_angle_l	mtp_angle_l	lumbar_extension	lumbar_bending	lumbar_rotation	arm_flex_r	arm_add_r	arm_rot_r	elbow_flex_r	pro_sup_r	wrist_flex_r	wrist_dev_r	arm_flex_l	arm_add_l	arm_rot_l	elbow_flex_l	pro_sup_l	wrist_flex_l	wrist_dev_l
      2.27000000	      4.50817491	     -4.45233249	      2.08649548	      0.45936166	      0.90528455	     -1.43419221	      2.49243834	      7.42577212	    -18.04764425	    -19.47157611	     -0.33984311	      8.69941682	     -1.95003696	     -2.35806477	     12.11881038	      7.73286234	      6.09830493	    -53.95986023	     -0.94177722	      3.71300871	      5.11735079	    -15.08933464	     -9.88026346	      6.54166943	      1.74599308	     11.40475953	    -11.11335735	     17.40596810	     16.60130057	     89.95437384	      0.00000000	      0.00000000	     -0.99085371	      8.79081647	    -14.72181137	     14.05548113	     89.95437384	      0.00000000	      0.00000000
      2.28000000	      4.93423355	     -4.03415847	      1.77335872	      0.46696601	      0.90602170	     -1.43379309	      1.40867521	      7.06533875	    -17.50188301	    -19.44387045	     -0.33935956	      9.41700678	     -1.89593493	     -2.44689418	     12.45772414	      7.04332238	      6.05219560	    -52.76223741	     -0.92087476	      4.77791674	      5.49863065	    -14.91869145	    -10.35969803	      5.97494413	      2.08849063	     11.85361526	    -11.21477903	     17.14971149	     17.21778644	     89.95437384	      0.00000000	      0.00000000	     -1.32011438	      8.94525009	    -14.33208107	     14.33532892	     89.95437384	      0.00000000	      0.00000000
      2.29000000	      4.84569514	     -3.93827864	      1.59181453	      0.47424791	      0.90581922	     -1.43332150	      1.01049657	      6.98833360	    -17.44874571	    -19.49762184	     -0.34029770	      9.60255862	     -1.88037546	     -2.44558471	     13.59045432	      6.84264026	      6.01849248	    -51.74228920	     -0.90307331	      5.04206809	      5.44848296	    -14.65245315	    -10.23849767	      5.77052227	      2.31930225	     12.25379463	    -11.31344553	     17.03645368	     17.72519865	     89.95437384	      0.00000000	      0.00000000	     -1.62735054	      9.09733736	    -14.21068786	     14.58211546	     89.95437384	      0.00000000	      0.00000000
      2.30000000	      5.39744537	     -3.43447723	      1.11247378	      0.48179488	      0.90665385	     -1.43283441	     -0.25826009	      6.51796257	    -16.71503495	    -19.37248893	     -0.33811372	     10.32139967	     -1.82438491	     -2.58144942	     13.59024179	      6.13432736	      6.31432940	    -50.13518832	     -0.87502411	      5.81662022	      6.14771351	    -14.40795575	    -10.88086336	      5.08008165	      2.78929689	     12.74543436	    -11.36507986	     16.51120690	     18.33317313	     89.95437384	      0.00000000	      0.00000000	     -1.88558692	      9.17367941	    -13.69290374	     14.80830123	     89.95437384	      0.00000000	      0.00000000
      2.31000000	      5.28931191	     -3.40068133	      0.96604797	      0.48891343	      0.90615562	     -1.43240218	     -0.61365200	      6.49297810	    -16.70477550	    -19.45752668	     -0.33959790	     10.48313828	     -1.82864766	     -2.58495943	     14.68893086	      6.06169718	      6.40485306	    -48.90868629	     -0.85361761	      6.10885329	      6.11771680	    -14.15299274	    -10.75381686	      4.93280493	      2.98992995	     13.15249279	    -11.44273363	     16.39994550	     18.83930229	     89.95437384	      0.00000000	      0.00000000	     -2.14269604	      9.28350341	    -13.56655385	     15.01270192	     89.95437384	      0.00000000	      0.00000000
      2.32000000	      5.76116068	     -2.95165159	      0.53511043	      0.49636195	      0.90664162	     -1.43207442	     -1.78638193	      6.06916506	    -15.89420541	    -19.34418324	     -0.33761969	     11.14279439	     -1.83309450	     -2.72424687	     14.69294916	      5.41557571	      6.72687913	    -47.05283444	     -0.82122688	      6.93796146	      6.80635306	    -13.85204874	    -11.31241635	      4.31178649	      3.42090135	     13.56045135	    -11.54174837	     16.37237952	     19.48030581	     89.95437384	      0.00000000	      0.00000000	     -2.35762448	      9.37501178	    -13.12224083	     15.35465608	     89.95437384	      0.00000000	      0.00000000
      2.33000000	      5.63024254	     -2.98709381	      0.40712455	      0.50340313	      0.90591473	     -1.43183769	     -2.09357741	      6.08787973	    -15.98251157	    -19.42860689	     -0.33909316	     11.27569627	     -1.84521155	     -2.72723698	     15.75939283	      5.45955423	      6.96402988	    -45.71356476	     -0.79785222	      6.99678853	      6.83495101	    -13.55676471	    -11.16586960	      4.27327843	      3.55051665	     13.99818870	    -11.61401911	     16.28817828	     20.01619713	     89.95437384	      0.00000000	      0.00000000	     -2.59882129	      9.44345272	    -12.96929564	     15.61517640	     89.95437384	      0.00000000	      0.00000000
      2.34000000	      5.57456401	     -3.01134233	      0.19539201	      0.51047014	      0.90526770	     -1.43142702	     -2.51577843	      6.11403300	    -15.81312606	    -19.51965582	     -0.34068226	     11.53766421	     -1.78449497	     -2.76837841	     16.59356968	      5.48328449	      7.27956004	    -44.09848460	     -0.76966375	      7.12579467	      7.00051492	    -13.24508295	    -11.13196075	      4.18551202	      3.81264451	     14.35210077	    -11.69290299	     16.23960427	     20.58733605	     89.95437384	      0.00000000	      0.00000000	     -2.81014519	      9.48869859	    -12.72842318	     15.95445080	     89.95437384	      0.00000000	      0.00000000
      2.35000000	      6.41637096	     -2.54653969	     -0.33566468	      0.51803213	      0.90618991	     -1.43113573	     -4.11444913	      5.57215862	    -15.15415597	    -19.31019119	     -0.33702642	     11.99415381	     -1.45052850	     -3.08217757	     15.91314899	      4.91036439	      8.09272645	    -41.74279318	     -0.72854918	      7.21205159	      8.30617341	    -12.65211222	    -12.12428337	      3.53011521	      4.27757190	     14.77523125	    -11.84623067	     16.57932859	     21.36414030	     89.95437384	      0.00000000	      0.00000000	     -2.92868717	      9.40126748	    -11.39735725	     16.28016160	     89.95437384	      0.00000000	      0.00000000
      2.36000000	      6.20922607	     -2.73721952	     -0.41706369	      0.52493170	      0.90509314	     -1.43103845	     -4.32525914	      5.74573463	    -15.18743108	    -19.45011952	     -0.33946863	     12.18091263	     -1.42126247	     -3.11295252	     16.93079114	      5.13559086	      8.44503789	    -40.18959989	     -0.70144084	      7.17962063	      8.31502575	    -12.36628994	    -11.92511415	      3.68383006	      4.37413286	     15.13866388	    -11.91821743	     16.56678410	     21.92788080	     89.95437384	      0.00000000	      0.00000000	     -3.11803412	      9.39572865	    -11.25309425	     16.55799398	     89.95437384	      0.00000000	      0.00000000
      2.37000000	      6.55001920	     -2.54362541	     -0.85839600	      0.53207231	      0.90503643	     -1.43075756	     -5.21598575	      5.48549121	    -14.56447180	    -19.50392413	     -0.34040769	     12.74220453	     -1.24258428	     -3.35322921	     16.90689852	      4.94140964	      9.25089673	    -38.02814453	     -0.66371633	      6.74786960	      8.83396664	    -11.79983045	    -12.39934676	      3.34702992	      4.80147773	     15.46856826	    -12.11273925	     17.04003351	     22.70190794	     89.95437384	      0.00000000	      0.00000000	     -3.21339176	      9.30721069	    -10.31102575	     16.92074212	     89.95437384	      0.00000000	      0.00000000
      2.38000000	      6.64735300	     -2.57688425	     -1.06766950	      0.53909992	      0.90443909	     -1.43075391	     -5.84458106	      5.46842642	    -14.32263140	    -19.50292968	     -0.34039034	     12.97172905	     -1.12836187	     -3.62796888	     17.28398511	      4.97861308	      9.83566960	    -36.08632158	     -0.62982513	      6.29384494	      8.92064326	    -11.18621901	    -12.55276406	      3.30543517	      4.96189870	     15.80356042	    -12.26194772	     17.51178927	     23.33256880	     89.95437384	      0.00000000	      0.00000000	     -3.32058375	      9.16986373	     -9.52111074	     17.15977334	     89.95437384	      0.00000000	      0.00000000
      2.39000000	      6.42116927	     -2.79683057	     -1.18892453	      0.54583087	      0.90320062	     -1.43085532	     -6.02817922	      5.65661920	    -14.15821165	    -19.63767609	     -0.34274211	     13.23204624	     -1.04669819	     -3.71208527	     18.10307429	      5.21840066	     10.29884290	    -34.31724291	     -0.59894888	      5.60126176	      8.81269330	    -10.76418101	    -12.39708997	      3.50970727	      5.07934751	     16.10540313	    -12.36522781	     17.55000733	     23.95212752	     89.95437384	      0.00000000	      0.00000000	     -3.44598362	      9.06943127	     -9.24954118	     17.50114860	     89.95437384	      0.00000000	      0.00000000
      2.40000000	      6.49364352	     -2.79151743	     -1.54826348	      0.55285400	      0.90248903	     -1.43078484	     -6.60578187	      5.55979748	    -13.75685480	    -19.69772161	     -0.34379010	     13.65318386	     -0.97544115	     -3.91402604	     18.35067606	      5.30052629	     11.32802183	    -32.27724522	     -0.56334420	      4.50526209	      8.67389472	    -10.16040762	    -12.55974799	      3.42452969	      5.33513107	     16.41936348	    -12.46309693	     17.89596825	     24.55737788	     89.95437384	      0.00000000	      0.00000000	     -3.48712794	      8.90772190	     -8.62457883	     17.64376873	     89.95437384	      0.00000000	      0.00000000
      2.41000000	      6.24819419	     -2.98301152	     -1.69117141	      0.55973630	      0.90115703	     -1.43086526	     -6.77443275	      5.71438883	    -13.54305948	    -19.83806391	     -0.34623953	     13.83524692	     -0.87886008	     -4.01475645	     19.00029632	      5.51359359	     11.92716392	    -30.27513166	     -0.52840073	      3.59107521	      8.30474961	     -9.72836860	    -12.39444567	      3.59585563	      5.46526445	     16.61741764	    -12.54851854	     17.96406966	     25.16926202	     89.95437384	      0.00000000	      0.00000000	     -3.57912936	      8.81584896	     -8.20472810	     17.99475032	     89.95437384	      0.00000000	      0.00000000
      2.42000000	      6.17258236	     -3.02224987	     -1.99235944	      0.56682258	      0.90011230	     -1.43091081	     -7.16990537	      5.66126189	    -13.22091194	    -19.93821562	     -0.34798751	     14.18988093	     -0.81447807	     -4.18908145	     19.33983446	      5.60692835	     12.89536077	    -28.24695106	     -0.49300230	      2.51607084	      7.76881181	     -9.28970681	    -12.39638479	      3.57630906	      5.67522549	     16.86696860	    -12.57542219	     18.17755146	     25.57385177	     89.95437384	      0.00000000	      0.00000000	     -3.58701512	      8.61740895	     -7.67725794	     18.09242188	     89.95437384	      0.00000000	      0.00000000
      2.43000000	      5.91418098	     -3.30142489	     -1.95563876	      0.57388487	      0.89855182	     -1.43126296	     -7.39164860	      5.90453535	    -13.39221575	    -19.98762039	     -0.34884979	     14.36126215	     -0.82364083	     -4.21272875	     20.18868340	      5.89161090	     13.49321224	    -26.85708634	     -0.46874458	      2.39729394	      7.63389429	     -9.12336353	    -12.18945939	      3.89202204	      5.54820749	     17.10268558	    -12.52194390	     18.17216354	     25.89876246	     89.95437384	      0.00000000	      0.00000000	     -3.62217174	      8.50224843	     -7.60506559	     18.20282026	     89.95437384	      0.00000000	      0.00000000
